:SAMPLES-PER-SECOND 30
:FULLY-SPECIFIED
:DEGREES
356
root  1.69131 34.0876 17.7252 4.49008 29.8862 -0.0250115
LeftUpLeg  -6.99933 8.79118 1.5758
LeftLeg  13.1489 4.75206 0.789939
LeftFoot  -2.53578 -0.0017885 -0.203146
LeftToes  -15.8395 1.92152e-006 4.03786e-008
Spine  1.45326 1.67275 -1.72036
Spine1  2.51892 3.42751 -3.24931
RightShoulder  0.0529526 4.67876 5.40572
RightArm  -28.846 5.24967 71.738
RightForeArm  33.2916 47.1669 10.9829
RightHand  2.20045 -10.9425 -22.2927
LeftShoulder1  0.0537413 0.32916 -10.1225
LeftArm  -21.8763 15.1792 -64.8585
LeftForeArm  25.5614 -15.4448 -2.78781
LeftHand  0.237196 5.30103 4.74421
HEad  -7.14592 -21.2427 0.767558
RightUpLeg  -10.5724 -9.79545 -7.0342
RightLeg  8.6751 -1.68682 -0.145778
RightFoot  8.33127 0.0398864 -0.175142
RightToes  -35.9267 -0.180064 -0.283068
357
root  1.69646 34.0892 17.7174 4.48412 29.7476 -0.0309229
LeftUpLeg  -6.98188 8.76541 1.55717
LeftLeg  13.1439 4.9026 0.814509
LeftFoot  -2.54455 -0.00140704 -0.21089
LeftToes  -15.8278 1.92152e-006 4.03786e-008
Spine  1.36605 1.68034 -1.78178
Spine1  2.34974 3.42924 -3.35604
RightShoulder  0.0533678 4.8681 5.2213
RightArm  -28.8192 5.09319 72.1421
RightForeArm  32.9063 46.7473 10.8203
RightHand  2.24665 -10.9544 -22.7313
LeftShoulder1  0.0543728 0.124546 -9.98468
LeftArm  -21.7913 15.1118 -64.9457
LeftForeArm  25.7298 -15.0298 -2.70931
LeftHand  0.235603 5.38454 4.63123
HEad  -5.30767 -21.0924 0.438096
RightUpLeg  -10.5773 -9.87052 -7.0275
RightLeg  8.61064 -1.50201 -0.127958
RightFoot  8.37515 0.0383095 -0.15085
RightToes  -35.7086 -0.180272 -0.283389
358
root  1.69429 34.0834 17.6995 4.37922 29.6619 -0.0552866
LeftUpLeg  -7.00159 8.66223 1.56644
LeftLeg  13.3582 5.08702 0.864636
LeftFoot  -2.65862 -0.000311031 -0.229718
LeftToes  -15.7643 1.92152e-006 4.03786e-008
Spine  1.35329 1.64138 -1.83219
Spine1  2.32144 3.34078 -3.44002
RightShoulder  0.0539178 4.69708 5.19688
RightArm  -28.6396 5.55984 72.6588
RightForeArm  32.8071 46.0443 10.5532
RightHand  2.25065 -10.8838 -22.9181
LeftShoulder1  0.054991 0.309046 -9.99335
LeftArm  -21.8627 14.8169 -65.0559
LeftForeArm  26.0256 -14.8507 -2.67546
LeftHand  0.247811 5.60204 4.68598
HEad  -5.37195 -20.9104 0.379036
RightUpLeg  -10.6085 -9.66866 -7.02918
RightLeg  8.77055 -1.60961 -0.141748
RightFoot  8.35348 0.0392732 -0.165935
RightToes  -35.7418 -0.18047 -0.283699
359
root  1.68521 34.0719 17.6708 4.20382 29.6201 -0.0896768
LeftUpLeg  -7.03458 8.63387 1.59634
LeftLeg  13.6811 5.14974 0.905097
LeftFoot  -2.82804 0.00077849 -0.24854
LeftToes  -15.6808 1.92152e-006 4.03786e-008
Spine  1.46963 1.60883 -1.82894
Spine1  2.54027 3.27762 -3.42886
RightShoulder  0.0545459 4.3514 5.36963
RightArm  -28.3324 6.18902 72.9462
RightForeArm  32.8697 45.8605 10.4845
RightHand  2.17738 -10.6347 -22.6966
LeftShoulder1  0.05559 0.642234 -10.2911
LeftArm  -22.2184 14.4999 -65.083
LeftForeArm  25.9198 -15.2072 -2.74275
LeftHand  0.250262 5.53575 4.79699
HEad  -6.49189 -20.8431 0.57706
RightUpLeg  -10.625 -9.34666 -7.0474
RightLeg  9.02113 -1.85338 -0.17159
RightFoot  8.29877 0.0413274 -0.197901
RightToes  -35.8333 -0.180659 -0.283999
360
root  1.67521 34.0677 17.6407 4.07492 29.5191 -0.111797
LeftUpLeg  -6.98015 8.73317 1.61675
LeftLeg  13.7351 5.14503 0.909256
LeftFoot  -2.87228 0.000934869 -0.253067
LeftToes  -15.6019 1.92152e-006 4.03786e-008
Spine  1.57609 1.65227 -1.82512
Spine1  2.73918 3.37885 -3.4385
RightShoulder  0.0550084 4.38904 5.51752
RightArm  -28.3825 6.14642 72.9768
RightForeArm  32.9499 46.4404 10.7028
RightHand  2.19536 -10.7083 -22.7254
LeftShoulder1  0.056164 0.673419 -10.5018
LeftArm  -22.2508 14.5597 -65.045
LeftForeArm  25.3026 -15.8361 -2.86216
LeftHand  0.249367 5.33492 4.97213
HEad  -7.11388 -20.9894 0.94058
RightUpLeg  -10.6363 -9.34113 -7.04287
RightLeg  9.13039 -1.74591 -0.164926
RightFoot  8.27856 0.0402308 -0.180908
RightToes  -35.7263 -0.180836 -0.284286
361
root  1.66971 34.0711 17.6173 4.05511 29.4391 -0.0915843
LeftUpLeg  -6.88436 8.81185 1.58875
LeftLeg  13.5278 5.13347 0.888126
LeftFoot  -2.76545 0.000152635 -0.243328
LeftToes  -15.6228 1.92152e-006 4.03786e-008
Spine  1.60964 1.73176 -1.84671
Spine1  2.80363 3.54369 -3.49122
RightShoulder  0.0553129 4.53526 5.45267
RightArm  -28.5684 5.70816 73.0476
RightForeArm  32.8807 47.0985 10.9565
RightHand  2.21603 -10.7718 -22.8028
LeftShoulder1  0.0567069 0.570742 -10.4376
LeftArm  -21.8623 14.6781 -65.1399
LeftForeArm  25.0813 -16.1729 -2.9264
LeftHand  0.242404 5.25584 4.90122
HEad  -6.93562 -21.2044 1.29293
RightUpLeg  -10.6232 -9.65659 -7.04894
RightLeg  9.03277 -1.34559 -0.12449
RightFoot  8.37626 0.03673 -0.126572
RightToes  -35.7446 -0.181003 -0.284561
362
root  1.66933 34.075 17.5941 4.10671 29.4186 -0.0392649
LeftUpLeg  -6.8479 8.77432 1.51682
LeftLeg  13.3296 5.17708 0.877275
LeftFoot  -2.6655 -0.000472381 -0.236466
LeftToes  -15.5698 1.92152e-006 4.03786e-008
Spine  1.56177 1.77094 -1.89324
Spine1  2.70914 3.62104 -3.58528
RightShoulder  0.0555654 4.624 5.34612
RightArm  -28.7008 5.33692 73.2176
RightForeArm  32.6787 47.2683 11.0231
RightHand  2.21882 -10.7537 -22.8693
LeftShoulder1  0.0572129 0.542282 -10.2854
LeftArm  -21.2185 14.744 -65.2142
LeftForeArm  25.1998 -16.095 -2.91151
LeftHand  0.2303 5.27595 4.61933
HEad  -6.38839 -21.3655 1.45991
RightUpLeg  -10.6062 -9.91415 -7.08955
RightLeg  8.85543 -1.07334 -0.0956719
RightFoot  8.45749 0.0343289 -0.0893259
RightToes  -35.5148 -0.181157 -0.284822
